<svg aria-hidden="true" style="position:absolute;width:0;height:0" xmlns="http://www.w3.org/2000/svg" overflow="hidden"><defs><symbol id="icon-logo" viewBox="0 0 64 32"><path  d="M19.962 24.133c-.601-1.67-1.837-2.505-3.708-2.505h-.591v10.299h.591c1.447 0 2.514-.57 3.203-1.711.58-.973.871-2.212.871-3.716-.001-.894-.123-1.684-.365-2.368zM9.828 24.256c.601 1.67 1.837 2.505 3.708 2.505h.591V16.462h-.591c-1.447 0-2.514.57-3.203 1.71-.579.973-.868 2.211-.868 3.716 0 .893.121 1.683.364 2.369zM0 .013h7.858v2.728H2.821v1.364h4.185v2.588H2.821v1.379h5.037V10.8H0V.013zM11.809 0h10.167l-5.084 11.019L11.808 0zm5.084 9.656l4.2-9.082h-8.385l4.185 9.082zM26.037.013h7.858v2.728h-5.037v1.364h4.185v2.588h-4.185v1.379h5.037V10.8h-7.858V.013zM38.73 10.784V0h.604l7.532 7.331V0h.573v10.787l-8.71-.003zM55.671 10.8V2.741h-4.076V.013h8.71v2.728h-4.076V10.8h-.558zM4.634 18.611c.682 0 1.224.103 1.627.31A2.707 2.707 0 017.78 21.4c.003.496-.137.983-.403 1.403-.27.43-.65.78-1.1 1.015a3.063 3.063 0 011.41 1.023 2.59 2.59 0 01.573 1.643 2.79 2.79 0 01-.411 1.48 2.992 2.992 0 01-1.093 1.062 2.897 2.897 0 01-.759.279c-.279.062-.651.093-1.116.093H.107V18.611h4.526zM22.806 28.616c-.811-.708-1.211-1.769-1.201-3.185h2.526c-.01.589.165 1.038.527 1.348s.868.465 1.519.465c.537 0 .961-.088 1.271-.263s.465-.444.465-.806c0-.3-.158-.517-.473-.651a4.443 4.443 0 00-.938-.287c-.31-.057-.501-.091-.573-.103-.702-.13-1.392-.32-2.061-.568a3.595 3.595 0 01-1.457-1.007c-.393-.455-.589-1.054-.589-1.798s.196-1.377.589-1.899c.393-.522.917-.912 1.573-1.17a5.792 5.792 0 012.147-.387c.94 0 1.754.176 2.441.527s1.227.883 1.62 1.596c.182.302.303.636.356.984.041.306.061.614.062.922h-2.526c0-.558-.15-.969-.449-1.232s-.765-.395-1.395-.395c-.506 0-.899.088-1.178.263s-.419.413-.419.713c0 .331.186.573.558.728a8.27 8.27 0 001.41.418c.93.186 1.656.364 2.178.535.526.173.995.487 1.356.907.382.434.573 1.044.573 1.829 0 .744-.207 1.385-.62 1.922s-.958.948-1.635 1.232a5.593 5.593 0 01-2.193.426c-1.498-.002-2.653-.356-3.464-1.064zM37.072 29.398v-8.059h-4.076v-2.728h8.71v2.728H37.63v8.059h-.558zM44.635 18.611h7.858v2.728h-5.037v1.364h4.185v2.588h-4.185v1.379h5.037v2.728h-7.858V18.611zM64.132 29.398H55.84V18.611h4.2c.899 0 1.632.16 2.201.48.543.295.993.735 1.302 1.271.312.542.472 1.157.465 1.782a3.414 3.414 0 01-.744 2.162 3.5 3.5 0 01-1.875 1.263l2.744 3.828zm-7.718-9.841v5.564h3.983l-3.983-5.564zm0 9.268h6.633l-2.263-3.146-.48.015h-3.89v3.131zm.403-9.64l4.216 5.889a2.965 2.965 0 001.72-1.038 2.881 2.881 0 00.682-1.891 2.957 2.957 0 00-.419-1.55 2.742 2.742 0 00-1.178-1.069c-.455-.227-1.048-.341-1.782-.341h-3.239z"/></symbol></defs></svg>