<svg id="close-modal" fill="none" xmlns="http://www.w3.org/2000/svg"><path d="M1.286 25a1.286 1.286 0 01-.909-2.196L22.804.377a1.286 1.286 0 111.82 1.819L2.195 24.623a1.29 1.29 0 01-.91.377z" fill="#4C00FE"/><path d="M23.715 25c-.33 0-.659-.125-.91-.377L.378 2.196A1.286 1.286 0 012.196.376l22.427 22.428A1.286 1.286 0 0123.715 25z" fill="#4C00FE"/></svg>
<svg id="barcode" fill="none" xmlns="http://www.w3.org/2000/svg"><path d="M3.222.833H0v19.334h3.222V.833zM11.327.833H8.104v19.334h3.223V.833zM16.209.833h-3.222v19.334h3.222V.833zM29 .833h-4.785v19.334H29V.833zM6.444.833H4.882v19.334h1.562V.833zM19.333.833h-1.562v19.334h1.562V.833zM22.555.833h-1.562v19.334h1.563V.833z" fill="#0E0E0E"/></svg>