<?xml version="1.0" standalone="no"?>
<!DOCTYPE svg PUBLIC "-//W3C//DTD SVG 20010904//EN"
 "http://www.w3.org/TR/2001/REC-SVG-20010904/DTD/svg10.dtd">
<svg version="1.0" xmlns="http://www.w3.org/2000/svg"
 width="512.000000pt" height="512.000000pt" viewBox="0 0 512.000000 512.000000"
 preserveAspectRatio="xMidYMid meet">
<metadata>
Created by potrace 1.16, written by Peter Selinger 2001-2019
</metadata>
<g transform="translate(0.000000,512.000000) scale(0.100000,-0.100000)"
fill="#000000" stroke="none">
<path d="M2275 5069 c-142 -19 -249 -99 -319 -236 -48 -96 -57 -138 -137 -611
-76 -455 -99 -568 -135 -682 -13 -41 -24 -78 -24 -82 -3 -24 -110 -215 -194
-347 -177 -278 -220 -391 -220 -581 0 -94 5 -134 27 -217 45 -169 37 -253 -53
-538 -70 -221 -83 -301 -83 -475 1 -341 121 -642 353 -884 111 -116 218 -195
354 -261 190 -92 342 -120 671 -120 249 0 283 6 510 92 193 73 442 205 484
256 7 10 28 17 46 17 43 0 175 34 255 66 114 45 219 114 310 204 99 97 156
195 208 360 51 160 65 256 59 415 -3 117 -8 152 -30 212 -57 160 -162 321
-292 448 l-73 70 5 85 c18 292 -114 621 -353 879 -32 35 -141 135 -240 222
-100 87 -208 188 -241 224 -75 83 -146 201 -194 323 -32 81 -36 103 -32 151 7
74 -11 214 -46 364 -16 67 -41 178 -56 246 -32 151 -57 219 -98 273 -78 101
-267 153 -462 127z m250 -54 c32 -9 75 -25 96 -37 l37 -21 -29 -25 c-29 -24
-59 -71 -59 -92 0 -21 16 -9 38 31 25 44 66 69 83 52 7 -7 1 -14 -19 -22 -41
-17 -65 -64 -66 -129 -1 -53 0 -55 35 -74 40 -21 80 -25 122 -14 23 7 27 5 27
-13 0 -31 -42 -48 -81 -34 -32 12 -47 2 -25 -17 17 -13 61 -16 93 -6 20 6 23
-1 57 -146 19 -84 40 -173 45 -198 30 -149 20 -274 -30 -378 -21 -44 -28 -67
-21 -74 15 -15 30 -2 58 54 14 27 27 48 29 46 1 -1 15 -32 30 -68 39 -95 109
-208 174 -282 31 -36 139 -139 241 -230 102 -90 214 -196 249 -234 154 -166
257 -344 308 -529 25 -91 27 -115 27 -265 0 -137 -4 -178 -22 -243 -64 -232
-199 -429 -392 -573 -93 -69 -120 -106 -120 -166 0 -18 -8 -63 -18 -99 -16
-56 -28 -76 -83 -134 -72 -76 -149 -125 -196 -125 -36 0 -50 14 -33 34 11 15
89 47 155 65 46 12 105 64 105 91 0 48 -67 64 -137 35 -20 -9 -60 -30 -87 -49
-91 -59 -154 -71 -180 -34 -19 27 -15 31 54 53 74 24 106 40 167 87 89 68 113
129 73 181 -31 39 -71 43 -125 12 -38 -23 -45 -24 -45 -10 0 25 18 53 41 66
16 8 37 7 92 -7 l70 -19 44 50 c160 179 299 385 358 531 43 104 46 222 11 345
-32 111 -153 379 -172 379 -24 0 -24 -19 0 -74 l24 -55 -66 34 c-88 44 -142
59 -142 39 0 -8 6 -14 13 -14 19 0 181 -80 174 -86 -3 -3 -22 -1 -44 5 -45 13
-193 15 -193 2 0 -4 37 -11 83 -15 169 -13 214 -38 251 -137 14 -39 24 -75 21
-80 -3 -4 -43 -21 -88 -36 -80 -27 -88 -28 -299 -28 -276 1 -294 -14 -38 -31
127 -8 267 8 365 41 49 16 72 20 77 12 12 -20 21 -140 12 -165 -5 -15 -34 -40
-69 -61 -416 -253 -839 -371 -1324 -371 l-160 0 -11 43 c-6 23 -15 58 -21 77
-5 19 -9 38 -9 41 0 4 35 19 78 34 102 36 168 70 343 176 266 161 405 220 556
235 74 8 84 24 16 24 -132 0 -319 -75 -578 -233 -77 -46 -172 -100 -211 -120
-65 -33 -181 -77 -202 -77 -5 0 -16 51 -26 114 l-17 115 69 68 c46 46 79 89
100 133 32 67 61 184 49 196 -11 12 -16 1 -27 -57 -16 -86 -72 -188 -135 -248
-58 -55 -82 -62 -49 -15 45 62 55 82 76 144 20 55 23 86 23 205 0 142 -7 195
-26 195 -7 0 -8 -19 -2 -57 23 -164 -2 -328 -64 -426 l-27 -42 -12 80 c-7 44
-13 81 -13 83 -1 1 -8 2 -16 2 -10 0 -15 -10 -15 -34 0 -44 55 -425 76 -531
49 -243 148 -368 348 -441 70 -25 431 -98 539 -109 l68 -7 12 31 c8 23 16 29
27 25 26 -12 53 -8 106 16 60 27 84 22 84 -17 0 -33 -72 -105 -151 -148 -52
-29 -58 -30 -179 -29 -141 2 -267 14 -450 45 -248 41 -381 100 -500 219 -115
115 -159 215 -255 578 -59 225 -75 273 -126 374 -48 95 -87 148 -104 142 -21
-9 -18 -31 9 -67 28 -39 78 -131 93 -172 6 -16 14 -39 19 -50 10 -28 -51 29
-78 73 -20 33 -48 43 -48 18 0 -8 36 -52 80 -97 44 -46 80 -84 80 -86 0 -5
-50 17 -74 32 -18 12 -26 13 -32 4 -9 -15 28 -43 79 -60 34 -11 38 -16 35 -40
-3 -17 0 -25 6 -22 5 4 7 0 3 -9 -3 -9 -3 -19 1 -22 3 -4 7 -12 8 -19 1 -7 5
-19 9 -28 11 -29 -9 -29 -91 -4 -88 27 -104 30 -104 15 0 -12 21 -21 135 -60
56 -19 81 -33 84 -45 3 -16 -3 -17 -60 -12 -35 4 -84 10 -108 13 -34 6 -43 4
-39 -7 6 -18 90 -39 160 -39 l57 0 21 -66 c11 -36 20 -69 20 -73 0 -11 -126 7
-185 26 -27 8 -70 26 -94 39 -50 28 -61 29 -61 10 0 -33 228 -116 319 -116 35
0 37 -1 83 -95 l48 -96 -38 7 c-122 21 -182 43 -295 111 -57 34 -75 37 -64 11
8 -21 137 -94 218 -123 41 -14 104 -29 142 -32 48 -4 67 -10 67 -20 0 -8 4
-12 9 -9 5 3 22 -9 38 -27 41 -46 88 -79 173 -122 41 -21 78 -43 82 -49 6 -8
8 -7 8 1 0 10 9 10 38 -2 44 -17 119 -37 147 -40 11 -1 85 -11 165 -23 80 -11
196 -24 258 -28 l112 -7 0 -37 c0 -24 7 -43 20 -55 20 -18 58 -18 160 1 l35 6
-37 -32 c-99 -83 16 -149 147 -85 28 14 63 25 78 25 71 0 147 66 147 128 0 17
-4 33 -9 36 -5 3 0 33 10 67 10 33 19 82 19 107 0 26 4 52 8 58 4 7 36 33 71
59 137 101 265 246 342 390 41 76 99 231 99 265 0 38 19 28 87 -43 88 -93 152
-182 207 -291 63 -124 81 -204 80 -361 -1 -116 -5 -145 -38 -270 -81 -310
-197 -460 -451 -585 -91 -45 -259 -99 -272 -87 -2 3 3 17 12 31 18 27 14 56
-7 56 -7 0 -28 -23 -46 -50 -37 -57 -118 -120 -237 -185 -170 -93 -468 -203
-608 -226 -135 -21 -502 7 -667 52 -92 25 -236 92 -320 149 -320 218 -531 631
-530 1040 1 129 18 215 83 420 75 232 89 298 90 405 0 66 -7 115 -26 185 -33
123 -38 173 -27 273 18 154 76 287 216 493 152 222 215 380 268 664 14 74 34
180 46 235 27 130 90 502 90 532 0 25 10 29 27 12 14 -14 85 -7 91 9 3 9 -3
13 -14 12 -55 -6 -94 13 -94 46 0 10 14 14 58 14 40 0 71 7 102 23 39 19 45
27 48 57 4 42 -14 108 -36 134 -10 10 -29 24 -44 30 -26 11 -27 13 -12 34 21
30 41 28 75 -9 16 -18 32 -29 35 -27 10 10 -19 56 -42 69 l-24 13 42 27 c24
16 68 35 98 43 73 19 221 20 295 1z m1072 -3001 c-44 -90 -49 -96 -115 -139
-81 -52 -280 -153 -384 -194 -215 -85 -430 -134 -667 -151 -142 -10 -151 -7
-218 60 -35 34 -93 118 -93 133 0 2 89 7 198 10 212 7 339 22 516 62 241 54
526 169 741 299 33 20 62 31 64 25 1 -6 -17 -53 -42 -105z m-114 -193 c-10
-16 -53 -74 -95 -129 l-77 -100 -39 5 c-27 4 -54 -1 -87 -16 -26 -11 -53 -21
-61 -21 -21 0 -136 -112 -153 -150 l-16 -36 -110 18 c-290 46 -355 58 -420 80
l-70 23 45 3 c361 23 760 148 1062 332 43 26 43 25 21 -9z"/>
<path d="M2604 4596 c-14 -35 35 -139 107 -227 65 -81 91 -138 91 -203 0 -46
-3 -53 -40 -88 -23 -21 -46 -38 -52 -38 -16 0 -12 43 10 84 20 40 19 56 -5 56
-28 0 -55 -83 -64 -194 -12 -158 -35 -179 -210 -192 -128 -10 -149 8 -172 142
-6 38 -25 95 -42 127 -29 56 -89 117 -114 117 -29 0 -22 -25 17 -64 53 -51 98
-139 74 -144 -21 -5 -72 16 -113 46 -63 46 -88 148 -57 234 7 21 40 81 71 133
45 75 59 105 59 138 1 61 -24 56 -42 -8 -8 -27 -39 -88 -68 -134 -30 -47 -59
-103 -65 -125 -11 -39 -9 -216 2 -213 3 1 18 -13 34 -31 38 -46 122 -92 166
-92 36 0 36 0 43 -50 4 -27 6 -52 6 -56 -2 -13 75 -64 104 -68 67 -11 96 -12
96 -6 0 4 30 10 66 14 124 13 179 62 190 173 6 59 7 59 53 81 63 29 91 78 91
161 0 78 -21 130 -84 211 -69 87 -85 114 -106 174 -19 53 -36 68 -46 42z"/>
<path d="M1850 3849 c0 -26 66 -132 111 -179 149 -156 520 -208 733 -104 61
30 133 97 162 149 20 37 11 62 -11 30 -50 -72 -65 -89 -105 -120 -77 -57 -141
-77 -265 -83 -131 -5 -262 16 -339 55 -28 14 -53 28 -56 32 -3 3 -12 7 -20 9
-8 2 -16 8 -18 13 -2 5 -10 9 -17 9 -7 0 -29 19 -49 43 -46 53 -46 52 -79 110
-26 44 -47 60 -47 36z"/>
<path d="M1994 3838 c-10 -16 92 -109 150 -137 160 -75 355 -67 569 23 20 9
37 21 37 26 0 15 -15 12 -80 -14 -103 -42 -200 -59 -313 -54 -90 4 -110 8
-170 37 -37 18 -91 55 -120 82 -55 52 -62 56 -73 37z"/>
<path d="M2900 3680 c0 -6 -35 -47 -77 -91 -65 -68 -92 -88 -168 -124 -135
-65 -270 -82 -418 -50 -144 30 -307 133 -359 227 -12 21 -28 38 -35 38 -17 0
-16 -4 3 -43 26 -49 122 -145 180 -178 73 -42 204 -78 304 -86 215 -15 426 79
562 250 41 53 46 67 23 67 -8 0 -15 -5 -15 -10z"/>
</g>
</svg>
